<?xml version="1.0" standalone="no"?><!DOCTYPE svg PUBLIC "-//W3C//DTD SVG 1.1//EN" "http://www.w3.org/Graphics/SVG/1.1/DTD/svg11.dtd"><svg t="1495243290037" class="icon" style="" viewBox="0 0 1024 1024" version="1.1" xmlns="http://www.w3.org/2000/svg" p-id="11857" xmlns:xlink="http://www.w3.org/1999/xlink" width="200" height="200"><defs><style type="text/css"></style></defs><path d="M482.95 621.714q37.714 0 73.142-8.571v374.286q0 14.857-10.857 25.714T519.521 1024h-73.143q-14.857 0-25.714-10.857t-10.858-25.714V613.143q35.429 8.571 73.143 8.571zM482.95 0q121.142 0 206.856 85.714t85.715 206.857-85.715 206.858-206.857 85.714-206.857-85.714-85.714-206.858 85.714-206.857T482.95 0z m0 128q8 0 13.142-5.143t5.143-13.143-5.143-13.143-13.143-5.142q-83.428 0-142.285 58.857T281.806 292.57q0 8 5.143 13.143t13.143 5.143 13.143-5.143 5.143-13.143q0-68 48.286-116.285T482.949 128z" p-id="11858" fill="#1296db"></path></svg>